<mxfile host="app.diagrams.net" agent="Mozilla/5.0 (Windows NT 10.0; Win64; x64; rv:138.0) Gecko/20100101 Firefox/138.0" version="27.0.5">
  <diagram name="Page-1" id="walpIwOoR2jDdNN6M9u6">
    <mxGraphModel dx="1429" dy="856" grid="1" gridSize="10" guides="1" tooltips="1" connect="1" arrows="1" fold="1" page="1" pageScale="1" pageWidth="3300" pageHeight="4681" math="0" shadow="0">
      <root>
        <mxCell id="0" />
        <mxCell id="1" parent="0" />
        <mxCell id="NbG_4-rcN5_hJyDmoFWG-3" style="edgeStyle=orthogonalEdgeStyle;rounded=0;orthogonalLoop=1;jettySize=auto;html=1;exitX=1;exitY=0.5;exitDx=0;exitDy=0;entryX=0;entryY=0.5;entryDx=0;entryDy=0;" edge="1" parent="1" source="NbG_4-rcN5_hJyDmoFWG-1" target="NbG_4-rcN5_hJyDmoFWG-2">
          <mxGeometry relative="1" as="geometry" />
        </mxCell>
        <mxCell id="NbG_4-rcN5_hJyDmoFWG-1" value="data:numeric&#xa;Blood Glucose&#xa;Measurement" style="rectangle;fillColor=#fff2cc;strokeColor=#d6b656;" name="data" vertex="1" parent="1">
          <mxGeometry x="340" y="230" width="100" height="50" as="geometry" />
        </mxCell>
        <mxCell id="NbG_4-rcN5_hJyDmoFWG-5" style="edgeStyle=orthogonalEdgeStyle;rounded=0;orthogonalLoop=1;jettySize=auto;html=1;exitX=1;exitY=0.5;exitDx=0;exitDy=0;entryX=0;entryY=0.5;entryDx=0;entryDy=0;" edge="1" parent="1" source="NbG_4-rcN5_hJyDmoFWG-2" target="NbG_4-rcN5_hJyDmoFWG-4">
          <mxGeometry relative="1" as="geometry" />
        </mxCell>
        <mxCell id="NbG_4-rcN5_hJyDmoFWG-2" value="transform:embed" style="rounded=1;whiteSpace=wrap;html=1;arcSize=50;fillColor=#f8cecc;strokeColor=#b85450;" name="transform" vertex="1" parent="1">
          <mxGeometry x="520" y="230" width="100" height="50" as="geometry" />
        </mxCell>
        <mxCell id="NbG_4-rcN5_hJyDmoFWG-8" style="edgeStyle=orthogonalEdgeStyle;rounded=0;orthogonalLoop=1;jettySize=auto;html=1;exitX=1;exitY=0.5;exitDx=0;exitDy=0;entryX=0;entryY=0.5;entryDx=0;entryDy=0;" edge="1" parent="1" source="NbG_4-rcN5_hJyDmoFWG-4" target="NbG_4-rcN5_hJyDmoFWG-7">
          <mxGeometry relative="1" as="geometry" />
        </mxCell>
        <mxCell id="NbG_4-rcN5_hJyDmoFWG-4" value="data&#xa;Dataset w/&#xa;Glycaemia Classified" style="rectangle;fillColor=#fff2cc;strokeColor=#d6b656;" name="data" vertex="1" parent="1">
          <mxGeometry x="700" y="230" width="100" height="50" as="geometry" />
        </mxCell>
        <mxCell id="NbG_4-rcN5_hJyDmoFWG-7" value="infer:deduce" style="rounded=1;whiteSpace=wrap;html=1;arcSize=50;fillColor=#bac8d3;strokeColor=#23445d;" name="infer:deduce" vertex="1" parent="1">
          <mxGeometry x="880" y="230" width="100" height="50" as="geometry" />
        </mxCell>
        <mxCell id="NbG_4-rcN5_hJyDmoFWG-10" style="edgeStyle=orthogonalEdgeStyle;rounded=0;orthogonalLoop=1;jettySize=auto;html=1;exitX=0.5;exitY=0;exitDx=0;exitDy=0;entryX=0.5;entryY=1;entryDx=0;entryDy=0;" edge="1" parent="1" source="NbG_4-rcN5_hJyDmoFWG-9" target="NbG_4-rcN5_hJyDmoFWG-7">
          <mxGeometry relative="1" as="geometry" />
        </mxCell>
        <mxCell id="NbG_4-rcN5_hJyDmoFWG-9" value="model:semantic&#xa;First Automaton" style="shape=hexagon;perimeter=hexagonPerimeter2;fillColor=#b0e3e6;strokeColor=#0e8088;" name="model" vertex="1" parent="1">
          <mxGeometry x="870" y="360" width="120" height="50" as="geometry" />
        </mxCell>
        <mxCell id="NbG_4-rcN5_hJyDmoFWG-15" style="edgeStyle=orthogonalEdgeStyle;rounded=0;orthogonalLoop=1;jettySize=auto;html=1;exitX=1;exitY=0.5;exitDx=0;exitDy=0;entryX=0.5;entryY=0;entryDx=0;entryDy=0;" edge="1" parent="1" source="NbG_4-rcN5_hJyDmoFWG-11" target="NbG_4-rcN5_hJyDmoFWG-14">
          <mxGeometry relative="1" as="geometry" />
        </mxCell>
        <mxCell id="NbG_4-rcN5_hJyDmoFWG-11" value="data:numeric&#xa;Blood Glucose&#xa;Ranges" style="rectangle;fillColor=#fff2cc;strokeColor=#d6b656;" name="data" vertex="1" parent="1">
          <mxGeometry x="1060" y="230" width="100" height="50" as="geometry" />
        </mxCell>
        <mxCell id="NbG_4-rcN5_hJyDmoFWG-13" value="&lt;div&gt;error&lt;/div&gt;&lt;div&gt;--&amp;gt;&lt;/div&gt;" style="text;html=1;align=center;verticalAlign=middle;whiteSpace=wrap;rounded=0;dashed=1;fillColor=#f5f5f5;fontColor=#333333;strokeColor=#666666;strokeWidth=2;" name="text" vertex="1" parent="1">
          <mxGeometry x="980" y="240" width="80" height="30" as="geometry" />
        </mxCell>
        <mxCell id="NbG_4-rcN5_hJyDmoFWG-14" value="infer:deduce" style="rounded=1;whiteSpace=wrap;html=1;arcSize=50;fillColor=#bac8d3;strokeColor=#23445d;" name="infer:deduce" vertex="1" parent="1">
          <mxGeometry x="1190" y="330" width="100" height="50" as="geometry" />
        </mxCell>
        <mxCell id="NbG_4-rcN5_hJyDmoFWG-23" style="edgeStyle=orthogonalEdgeStyle;rounded=0;orthogonalLoop=1;jettySize=auto;html=1;exitX=0;exitY=0.5;exitDx=0;exitDy=0;entryX=1;entryY=0.5;entryDx=0;entryDy=0;" edge="1" parent="1" source="NbG_4-rcN5_hJyDmoFWG-16" target="NbG_4-rcN5_hJyDmoFWG-22">
          <mxGeometry relative="1" as="geometry" />
        </mxCell>
        <mxCell id="NbG_4-rcN5_hJyDmoFWG-16" value="data:numeric&#xa;Patient&#39;s Metabolic&#xa;Condition" style="rectangle;fillColor=#fff2cc;strokeColor=#d6b656;" name="data" vertex="1" parent="1">
          <mxGeometry x="1010" y="460" width="100" height="50" as="geometry" />
        </mxCell>
        <mxCell id="NbG_4-rcN5_hJyDmoFWG-18" value="&lt;div&gt;error&lt;/div&gt;&lt;div&gt;&amp;nbsp; --&lt;/div&gt;&lt;div&gt;|&lt;/div&gt;&lt;div&gt;v&lt;/div&gt;" style="text;html=1;align=center;verticalAlign=middle;whiteSpace=wrap;rounded=0;dashed=1;fillColor=#f5f5f5;fontColor=#333333;strokeColor=#666666;strokeWidth=2;" name="text" vertex="1" parent="1">
          <mxGeometry x="1060" y="330" width="130" height="130" as="geometry" />
        </mxCell>
        <mxCell id="NbG_4-rcN5_hJyDmoFWG-19" value="data:numeric&#xa;Ketones Urine" style="rectangle;fillColor=#fff2cc;strokeColor=#d6b656;" name="data" vertex="1" parent="1">
          <mxGeometry x="1190" y="460" width="100" height="50" as="geometry" />
        </mxCell>
        <mxCell id="NbG_4-rcN5_hJyDmoFWG-21" value="&lt;div&gt;error&lt;/div&gt;&lt;div&gt;^&lt;/div&gt;&lt;div&gt;|&lt;/div&gt;&lt;div&gt;|&lt;/div&gt;" style="text;html=1;align=center;verticalAlign=middle;whiteSpace=wrap;rounded=0;dashed=1;fillColor=#f5f5f5;fontColor=#333333;strokeColor=#666666;strokeWidth=2;" name="text" vertex="1" parent="1">
          <mxGeometry x="1222.5" y="380" width="35" height="80" as="geometry" />
        </mxCell>
        <mxCell id="NbG_4-rcN5_hJyDmoFWG-39" style="edgeStyle=orthogonalEdgeStyle;rounded=0;orthogonalLoop=1;jettySize=auto;html=1;exitX=0.25;exitY=1;exitDx=0;exitDy=0;entryX=1;entryY=0.5;entryDx=0;entryDy=0;" edge="1" parent="1" source="NbG_4-rcN5_hJyDmoFWG-22" target="NbG_4-rcN5_hJyDmoFWG-35">
          <mxGeometry relative="1" as="geometry" />
        </mxCell>
        <mxCell id="NbG_4-rcN5_hJyDmoFWG-22" value="infer:deduce" style="rounded=1;whiteSpace=wrap;html=1;arcSize=50;fillColor=#bac8d3;strokeColor=#23445d;" name="infer:deduce" vertex="1" parent="1">
          <mxGeometry x="830" y="460" width="100" height="50" as="geometry" />
        </mxCell>
        <mxCell id="NbG_4-rcN5_hJyDmoFWG-25" style="edgeStyle=orthogonalEdgeStyle;rounded=0;orthogonalLoop=1;jettySize=auto;html=1;exitX=1;exitY=0.5;exitDx=0;exitDy=0;entryX=0;entryY=0.5;entryDx=0;entryDy=0;" edge="1" parent="1" source="NbG_4-rcN5_hJyDmoFWG-24" target="NbG_4-rcN5_hJyDmoFWG-22">
          <mxGeometry relative="1" as="geometry" />
        </mxCell>
        <mxCell id="NbG_4-rcN5_hJyDmoFWG-24" value="model:semantic&#xa;Rule-Based" style="shape=hexagon;perimeter=hexagonPerimeter2;fillColor=#b0e3e6;strokeColor=#0e8088;" name="model" vertex="1" parent="1">
          <mxGeometry x="630" y="460" width="120" height="50" as="geometry" />
        </mxCell>
        <mxCell id="NbG_4-rcN5_hJyDmoFWG-27" style="edgeStyle=orthogonalEdgeStyle;rounded=0;orthogonalLoop=1;jettySize=auto;html=1;entryX=0;entryY=0.5;entryDx=0;entryDy=0;" edge="1" parent="1" source="NbG_4-rcN5_hJyDmoFWG-26" target="NbG_4-rcN5_hJyDmoFWG-24">
          <mxGeometry relative="1" as="geometry" />
        </mxCell>
        <mxCell id="NbG_4-rcN5_hJyDmoFWG-26" value="generate:train" style="rounded=1;whiteSpace=wrap;html=1;arcSize=50;fillColor=#e1d5e7;strokeColor=#9673a6;" name="generate:train" vertex="1" parent="1">
          <mxGeometry x="450" y="460" width="100" height="50" as="geometry" />
        </mxCell>
        <mxCell id="NbG_4-rcN5_hJyDmoFWG-28" value="model:semantic&#xa;Guidelines" style="shape=hexagon;perimeter=hexagonPerimeter2;fillColor=#b0e3e6;strokeColor=#0e8088;" name="model" vertex="1" parent="1">
          <mxGeometry x="440" y="590" width="120" height="50" as="geometry" />
        </mxCell>
        <mxCell id="NbG_4-rcN5_hJyDmoFWG-30" value="&lt;div&gt;error&lt;/div&gt;&lt;div&gt;^&lt;/div&gt;&lt;div&gt;|&lt;/div&gt;&lt;div&gt;|&lt;/div&gt;" style="text;html=1;align=center;verticalAlign=middle;whiteSpace=wrap;rounded=0;dashed=1;fillColor=#f5f5f5;fontColor=#333333;strokeColor=#666666;strokeWidth=2;" name="text" vertex="1" parent="1">
          <mxGeometry x="482.5" y="510" width="35" height="80" as="geometry" />
        </mxCell>
        <mxCell id="NbG_4-rcN5_hJyDmoFWG-32" value="actor&#xa;Endocrinologists" style="triangle;fillColor=#ffe6cc;strokeColor=#d79b00;" name="actor" vertex="1" parent="1">
          <mxGeometry x="270" y="460" width="100" height="50" as="geometry" />
        </mxCell>
        <mxCell id="NbG_4-rcN5_hJyDmoFWG-34" value="&lt;div&gt;error&lt;/div&gt;&lt;div&gt;--&amp;gt;&lt;/div&gt;" style="text;html=1;align=center;verticalAlign=middle;whiteSpace=wrap;rounded=0;dashed=1;fillColor=#f5f5f5;fontColor=#333333;strokeColor=#666666;strokeWidth=2;" name="text" vertex="1" parent="1">
          <mxGeometry x="370" y="470" width="80" height="30" as="geometry" />
        </mxCell>
        <mxCell id="NbG_4-rcN5_hJyDmoFWG-35" value="symbol&#xa;Healthcare&#xa;Provider Interventions" style="rectangle;fillColor=#dae8fc;strokeColor=#6c8ebf;" name="symbol" vertex="1" parent="1">
          <mxGeometry x="700" y="560" width="100" height="50" as="geometry" />
        </mxCell>
        <mxCell id="NbG_4-rcN5_hJyDmoFWG-37" value="symbol&#xa;Direct Patient&#xa;Interventions" style="rectangle;fillColor=#dae8fc;strokeColor=#6c8ebf;" name="symbol" vertex="1" parent="1">
          <mxGeometry x="960" y="560" width="100" height="50" as="geometry" />
        </mxCell>
        <mxCell id="NbG_4-rcN5_hJyDmoFWG-40" value="&lt;div&gt;error&lt;/div&gt;&lt;div&gt;|&lt;/div&gt;&lt;div&gt;&amp;nbsp;&amp;nbsp;&amp;nbsp; --&amp;gt;&lt;/div&gt;" style="text;html=1;align=center;verticalAlign=middle;whiteSpace=wrap;rounded=0;dashed=1;fillColor=#f5f5f5;fontColor=#333333;strokeColor=#666666;strokeWidth=2;" name="text" vertex="1" parent="1">
          <mxGeometry x="890" y="510" width="70" height="100" as="geometry" />
        </mxCell>
        <mxCell id="NbG_4-rcN5_hJyDmoFWG-41" value="infer:deduce" style="rounded=1;whiteSpace=wrap;html=1;arcSize=50;fillColor=#bac8d3;strokeColor=#23445d;" name="infer:deduce" vertex="1" parent="1">
          <mxGeometry x="1190" y="590" width="100" height="50" as="geometry" />
        </mxCell>
        <mxCell id="NbG_4-rcN5_hJyDmoFWG-43" value="&lt;div&gt;error&lt;/div&gt;&lt;div&gt;^&lt;/div&gt;&lt;div&gt;|&lt;/div&gt;&lt;div&gt;|&lt;/div&gt;" style="text;html=1;align=center;verticalAlign=middle;whiteSpace=wrap;rounded=0;dashed=1;fillColor=#f5f5f5;fontColor=#333333;strokeColor=#666666;strokeWidth=2;" name="text" vertex="1" parent="1">
          <mxGeometry x="1222.5" y="510" width="35" height="80" as="geometry" />
        </mxCell>
        <mxCell id="NbG_4-rcN5_hJyDmoFWG-46" style="edgeStyle=orthogonalEdgeStyle;rounded=0;orthogonalLoop=1;jettySize=auto;html=1;entryX=0.5;entryY=1;entryDx=0;entryDy=0;" edge="1" parent="1" source="NbG_4-rcN5_hJyDmoFWG-45" target="NbG_4-rcN5_hJyDmoFWG-41">
          <mxGeometry relative="1" as="geometry" />
        </mxCell>
        <mxCell id="NbG_4-rcN5_hJyDmoFWG-45" value="model:semantic&#xa;Second Automaton" style="shape=hexagon;perimeter=hexagonPerimeter2;fillColor=#b0e3e6;strokeColor=#0e8088;" name="model" vertex="1" parent="1">
          <mxGeometry x="1180" y="720" width="120" height="50" as="geometry" />
        </mxCell>
        <mxCell id="NbG_4-rcN5_hJyDmoFWG-48" style="edgeStyle=orthogonalEdgeStyle;rounded=0;orthogonalLoop=1;jettySize=auto;html=1;entryX=1;entryY=0.5;entryDx=0;entryDy=0;" edge="1" parent="1" source="NbG_4-rcN5_hJyDmoFWG-47" target="NbG_4-rcN5_hJyDmoFWG-41">
          <mxGeometry relative="1" as="geometry" />
        </mxCell>
        <mxCell id="NbG_4-rcN5_hJyDmoFWG-47" value="data:numeric&#xa;Ketonuria Status" style="rectangle;fillColor=#fff2cc;strokeColor=#d6b656;" name="data" vertex="1" parent="1">
          <mxGeometry x="1370" y="590" width="100" height="50" as="geometry" />
        </mxCell>
      </root>
    </mxGraphModel>
  </diagram>
</mxfile>
